<svg width="138" height="138" viewBox="0 0 138 138" fill="none" xmlns="http://www.w3.org/2000/svg">
<path d="M40 2.5H98C118.711 2.5 135.5 19.2893 135.5 40V98C135.5 118.711 118.711 135.5 98 135.5H40C19.2893 135.5 2.5 118.711 2.5 98V40C2.5 19.2893 19.2893 2.5 40 2.5Z" stroke="#E8E8E8" stroke-width="5"/>
<path d="M89.5 69L91.7961 70.9308C92.7346 69.8147 92.7346 68.1853 91.7961 67.0692L89.5 69ZM73.2961 92.9308L91.7961 70.9308L87.2039 67.0692L68.7039 89.0692L73.2961 92.9308ZM91.7961 67.0692L73.2961 45.0692L68.7039 48.9308L87.2039 70.9308L91.7961 67.0692ZM48 72H89.5V66H48V72Z" fill="#E7E7E7"/>
</svg>
